/* XPM */
static char *_2bcab7b0bae472ce01891da961cd491WBLUcHUSO0b7FWnt[] = {
/* columns rows colors chars-per-pixel */
"64 64 14 1 ",
"  c None",
". c black",
"X c gray13",
"o c #5D4037",
"O c gray26",
"+ c gray46",
"@ c #FF6D00",
"# c #FF5722",
"$ c #FF7043",
"% c #FFA000",
"& c #D4E157",
"* c #4D6DF3",
"= c #B4B4B4",
"- c #99D9EA",
/* pixels */
"XXXXXXXXXXXXXXXXXXXXXXXXXXX-----------XXooooXXXXXXXXXXXXXXXXXXXX",
"XXXXXXXXXXXXXXXXXXXXXXX----===*====*=oooo@@oooXXXXXXXXXXXXXXXXXX",
"XXXXXXXXXXXXXXXXXXXX---===*===*====ooo%&&@@@@ooXXXXXXXXXXXXXXXXX",
"XXXXXXXXXXXXXXXXXX--=*====*===*===o%%%%&@@@@@oooooXXXXXXXXXXXXXX",
"XXXXXXXXXXXXXXXX--===*====*=......o%%%&@@@@@#o@@@ooXXXXXXXXXXXXX",
"XXXXXXXXXXXXXXX-=*====*==..OOOOOOoo%%%&@@@@@#o@@@@oXXXXXXXXXXXXX",
"XXXXXXXXXXXXX--==*====*..OOOOOOooo%%%%&@@@@@@o@@@@@oXXXXXXXXXXXX",
"XXXXXXXXXXXX-=====*==..OOOOOOOOo%%%%%&o@@@@@@o@@@@@ooXXXXXXXXXXX",
"XXXXXXXXXXX-*=====*=.OOOOOOOOOOo%%%%&@o@@@@@@o@@@@@=o-XXXXXXXXXX",
"XXXXXXXXXX-==*====..OOOOOOOOOOOo%%%%&@o@@@@@@o@@@@@@oo-XXXXXXXXX",
"XXXXXXXXX-===*===..OOOOOOOOOOOOo%%%%&@o@#@@@@o@@@@@@ooooXXXXXXXX",
"XXXXXXXX-=====*=.OOOOOOOOOOOOOoo%%%%&@o@#@@@#o@@@@@#o@@ooXXXXXXX",
"XXXXXXX-=*====..OOOOOOOOOOOOOOo%%%%&@@o@#@@@#o@@@@@#o@@@ooXXXXXX",
"XXXXXX-===*==..OOOOOOOOOOOOOOoo%%%%&@@o@#@@@#o@@@@@#o@@@@o-XXXXX",
"XXXXXX-====*.OOOOOOOOOOOOOOOOo%%%%%&@@o@@@@@#o@@@@@#o@@@@o-XXXXX",
"XXXXX.=====.OOOOOOOOOOOOOOOOOo%%%%%&@@o@@@@@@o@@@@@#o@@@@o=-XXXX",
"XXXX-*====.OOOOOOOOOOOOOOOOOOo%%%%&@@#o@@@@@@o@@@@@#o@@@@oo=-XXX",
"XXXX-.*===.OOOOOOOOOOOOOOOOOOo%%%%&@@#o@@@@@@o@@@@@#o@@#@oo*-XXX",
"XXX--.=*=.OOOOOOOOOOOOOOOOOOOo%%%%&@@@o@@@@@@o@@@@@#o@@#@ooo=-XX",
"XXX--.=.OOOOOOOOOOOOOOOOOOOOOo%%ooooooo@@@@@@o@@@@@#o@@#@o@o=-XX",
"XX-**...OOOOOOOOOOOOOOOOOOOOOo%%o%%%%%ooo@@@@o@@@@@#o@@#@o@o**-X",
"XX-==.OOOOOOOOOOOOOOOOOOOOOOOo%%o%$$$$%%oooooo@@@@@#o@@@#o@oo=-X",
"XX-==.OOOOOOOOOOOOOOOOOOOOOOOo%%o%$$$==$%%%%ooooo@@#o@@@#o@@o=-X",
"X-===.OOOOOOOOOOOOOOOOOOOOOOOo%%oooo$==$$$$$%%%%ooooo@@@#o@@o==-",
"X-***.OOOOOOOOOOOOOOOOOOOOOOOo%%%%&ooooo$$$$==$$%%%%oo@@#o@#o**-",
"X-===.OOOOOOOOOOOOOOOOOOOOOOOo%%%%&@@ooooooo==$$$$$$%ooooo@#oo=-",
"X-===.OOOOOOOOOOOOOOOOOOOOOOOo%%%%&@@@o@@ooo$$$$$$$$$%%%%oooooo-",
"-====.OOOOOOOOOOOOOOOOOOOOOOOo%%%%&@@@o@@@@ooooo$$$$==$$$%%%ooo=",
"-****.OOOOOOOOOOOOOOOOOOOOOOOo%%%%&@@@o@@@@@@ooooooo==$$$$$$oo**",
"-*===.OOOOOOOOOOOOOOOOOOOOOOOo%%%%&@@@O@@@@@@o@@@oooo$$$$==$o===",
"-*===.OOOOOOOOOOOOOOOOOOOOOOOo%%%%&@@O+O@@@@@o@@@@@@ooooo==$.===",
"-*===.OOOOOOOOOOOOOOOOOOOOOOOo%%%%&@@O+O@@@@@o@@@@@@o@oooooo.===",
"-****.OOOOOOOOOOOOOOOOOOOOOOOo%%%%&@@O+O@@@@@o#@@@#@o@@@@ooo.***",
"-*===.OOOOOOOOOOOOOOOOOOOOOOOo%%%%&@@@O@@@@@@o#@@@#@o@@@@o@@.===",
"-*===.OOOOOOOOOOOOOOOOOOOOOOOo%%%%&@@@O@@@@@@o#@@@@@o@@@#o@@.===",
"-*===.OOOOOOOOOOOOOOOOOOOOOOOo%%%%&@@#O@@@@@@o#@@@@@o@@@#o@@.===",
"-****.OOOOOOOOOOOOOOOOOOOOOOOo%%%%&@@#O@@@@@@o#@@@@@o@@@#o@@.***",
"-*===.OOOOOOOOOOOOOOOOOOOOOOOo%%%%&@@#O@@@@@@o@@@@@#o@@@#o@@.===",
"-*===.OOOOOOOOOOOOOOOOOOOOOOOo%%%%&@@@O@@@@@@o@@@@@#o@@@#o@@.===",
"-*===.OOOOOOOOOOOOOOOOOOOOOOOo%%%%&@@@O@@@@@@o@@@@@#o@@@@o@@.===",
"-****.OOOOOOOOOOOOOOOOOOOOOOOo%%%%&@@O+O@@@@@o@@@@@#o@@@@o@#.***",
"-*===.OOOOOOOOOOOOOOOOOOOOOOOo%%%%&@@O+O@@@@@o@@@@@#o@@@@o@#.===",
"-*===.OOOOOOOOOOOOOOOOOOOOOOOo%%%%&@@O+O@@@@@o@@@@@#o@@@@o#@.===",
"-*===.OOOOOOOOOOOOOOOOOOOOOOOo%%%%&@@@O@@@@@@o@@@@@#o@@@@o@@.===",
"-****.OOOOOOOOOOOOOOOOOOOOOOOo%%%%&@@@o@@@@@@o@@@@@@o@@@@o@@.===",
"-*===.OOOOOOOOOOOOOOOOOOOOOOOo%%%%&@@@o@@@@@@o@@@@@@o@@@@ooo.***",
"-*===.OOOOOOOOOOOOOOOOOOOOOOOo%%%%&@@@o@@@@@@o@@@ooooooooooo.===",
"-*===.OOOOOOOOOOOOOOOOOOOOOOOo%%%%&@@@o@@@@@@oooooooo%%%%==%.===",
"-****.OOOOOOOOOOOOOOOOOOOOOOOo%%%%&@@@o@@@ooooooo%%%%$$$$==$.===",
"-*===.OOOOOOOOOOOOOOOOOOOOOOOo%%%%&@@@oooooo%%%%%==$$$$ooooo.***",
"-*===.OOOOOOOOOOOOOOOOOOOOOOOo%%%%&@ooooo%%==$$$$==ooooooo@@.===",
"-*===.OOOOOOOOOOOOOOOOOOOOOOOo%%%%ooo%%%%$$==$$ooooooo@@@o@@.===",
"-****.OOOOOOOOOOOOOOOOOOOOOOOo%%%o%%%==$$$$ooooooo@@o@@@@o@@o===",
"-*===.OOOOOOOOOOOOOOOOOOOOOOOo%%oo%$$==$$$oooo@@@@@@o@@@@o@@oo**",
"-*===.OOOOOOOOOOOOOOOOOOOOOOOo%%o%$$$$$ooooooo@@@@@#o@@@@o@@ooo=",
"-*=o=.OOOOOOOOOOOOOOOOOOOOOOOo%%o%$$$ooo@@@@@o@@@@##o@@@@o@@ooo=",
"-****.OOOOOOOOOOOOOOOOOOOOOOOo%%oooooooo@@@@@o@@@@##o@@@@o@@oo==",
"-*===.OOOOOOOOOOOOOOOOOOOOOOOo%%%%&@@@o@@@@#@o@@@@@#o@@@@o@#o***",
"-*===.OOOOOOOOOOOOOOOOOOOOOOOo%%%%&@@@o@@@@#@o@@@@@#o@@@@o@#.===",
"-*===.OOOOOOOOOOOOOOOOOOOOOOOo%%%%&@#@o@@@@#@o@@@@@@o@@@@o@#.===",
"-****.OOOOOOOOOOOOOOOOOOOOOOOo%%%%&@#@o@@@@#@o@@@@@@o@@@@o@#.===",
"-*===.OOOOOOOOOOOOOOOOOOOOOOOo%%%%&@#@o@@@@@@o@@@@@@o@@@@o@#.***",
"-*===.OOOOOOOOOOOOOOOOOOOOOOOo%%%%&@@@o@@@@@@o@@@@@@o@@@@o@@.===",
" *===.OOOOOOOOOOOOOOOOOOOOOOOOooooooOooooooooOoooooooOoooooo.==="
};
