/* XPM */
static char *_303ab68098845facd9493e81dd741dfVyFLZsAOxLIugvwP[] = {
/* columns rows colors chars-per-pixel */
"64 64 15 1 ",
"  c None",
". c black",
"X c gray13",
"o c #5D4037",
"O c gray26",
"+ c gray46",
"@ c #FF6D00",
"# c #FF5722",
"$ c #FF7043",
"% c #FFA000",
"& c #D4E157",
"* c #4D6DF3",
"= c #B4B4B4",
"- c #99D9EA",
"; c white",
/* pixels */
"                           -----------XXoooo                    ",
"                       ----===*====*=oooo@@ooo                  ",
"                    ---===*===*====ooo%&&@@@@oo                 ",
"                  --=*====*===*===o%%%%&@@@@@ooooo              ",
"                --===*====*=......o%%%&@@@@@#o@@@oo             ",
"               -=*====*==..      oo%%%&@@@@@#o@@@@o             ",
"             --==*====*..      ooo%%%%&@@@@@@o@@@@@o            ",
"            -=====*==..        o%%%%%&o@@@@@@o@@@@@oo           ",
"           -*=====*=.          o%%%%&@o@@@@@@o@@@@@=o-          ",
"          -==*====..           o%%%%&@o@@@@@@o@@@@@@oo-         ",
"         -===*===..            o%%%%&@o@#@@@@o@@@@@@oooo        ",
"        -=====*=.             oo%%%%&@o@#@@@#o@@@@@#o@@oo       ",
"       -=*====..              o%%%%&@@o@#@@@#o@@@@@#o@@@oo      ",
"      -===*==..              oo%%%%&@@o@#@@@#o@@@@@#o@@@@o-     ",
"      -====*.                o%%%%%&@@o@@@@@#o@@@@@#o@@@@o-     ",
"     -=====.                 o%%%%%&@@o@@@@@@o@@@@@#o@@@@o=-    ",
"    -*====.                  o%%%%&@@#o@@@@@@o@@@@@#o@@@@oo=-   ",
"    -=*===.                  o%%%%&@@#o@@@@@@o@@@@@#o@@#@oo*-   ",
"   --==*=.                   o%%%%&@@@o@@@@@@o@@@@@#o@@#@ooo=-  ",
"   --==.                     o%%ooooooo@@@@@@o@@@@@#o@@#@o@o=-  ",
"  -**...                     o%%o%%%%%ooo@@@@o@@@@@#o@@#@o@o**- ",
"  -==.                       o%%o%$$$$%%oooooo@@@@@#o@@@#o@oo=- ",
"  -==.                       o%%o%$$$==$%%%%ooooo@@#o@@@#o@@o=- ",
" -===.                       o%%oooo$==$$$$$%%%%ooooo@@@#o@@.==-",
" -***.                       o%%%%&ooooo$$$$==$$%%%%oo@@#o@#.**-",
" -===.                       o%%%%&@@ooooooo==$$$$$$%ooooo@#.==-",
" -===.                       o%%%%&@@@o@@ooo$$$$$$$$$%%%%oooo==-",
"-====.                       o%%%%&@@@o@@@@ooooo$$$$==$$$%%%oo==",
"-****.                       o%%%%&@@@o@@@@@@ooooooo==$$$$$$ooo*",
"-*===.                       o%%%%&@@@O@@@@@@o@@@oooo$$$$==$ooo=",
"-*===.                       o%%%%&@@O+O@@@@@o@@@@@@ooooo==$oo==",
"-*===.                       o%%%%&@@O+O@@@@@o@@@@@@o@ooooooo===",
"-****.                       o%%%%&@@O+O@@@@@o#@@@#@o@@@@ooo.***",
"-*===.                       o%%%%&@@@O@@@@@@o#@@@#@o@@@@o@@.===",
"-*===.                       o%%%%&@@@O@@@@@@o#@@@@@o@@@#o@@.===",
"-*===.                       o%%%%&@@#O@@@@@@o#@@@@@o@@@#o@@.===",
"-****.                       o%%%%&@@#O@@@@@@o#@@@@@o@@@#o@@.***",
"-*===.                       o%%%%&@@#O@@@@@@o@@@@@#o@@@#o@@.===",
"-*===.                       o%%%%&@@@O@@@@@@o@@@@@#o@@@#o@@.===",
"-*===.                       o%%%%&@@@O@@@@@@o@@@@@#o@@@@o@@.===",
"-****.                       o%%%%&@@O+O@@@@@o@@@@@#o@@@@o@#.***",
"-*===.                       o%%%%&@@O+O@@@@@o@@@@@#o@@@@o@#.===",
"-*===.                       o%%%%&@@O+O@@@@@o@@@@@#o@@@@o#@.===",
"-*===.                       o%%%%&@@@O@@@@@@o@@@@@#o@@@@o@@.===",
"-****.                       o%%%%&@@@o@@@@@@o@@@@@@o@@@@o@@.===",
"-*===.                       o%%%%&@@@o@@@@@@o@@@@@@o@@@@oooo***",
"-*===.                       o%%%%&@@@o@@@@@@o@@@ooooooooooooo==",
"-*===.                       o%%%%&@@@o@@@@@@oooooooo%%%%==%ooo=",
"-****.                       o%%%%&@@@o@@@ooooooo%%%%$$$$==$ooo=",
"-*===.                       o%%%%&@@@oooooo%%%%%==$$$$ooooooo**",
"-*===.                       o%%%%&@ooooo%%==$$$$==ooooooo@@o===",
"-*===.                       o%%%%ooo%%%%$$==$$ooooooo@@@o@@.===",
"-****.                       o%%%o%%%==$$$$ooooooo@@o@@@@o@@.===",
"-*===.                       o%%oo%$$==$$$oooo@@@@@@o@@@@o@@.***",
"-*===.                       o%%o%$$$$$ooooooo@@@@@#o@@@@o@@.===",
"-*=o=.                       o%%o%$$$ooo@@@@@o@@@@##o@@@@o@@.===",
"-****.                       o%%oooooooo@@@@@o@@@@##o@@@@o@@.===",
"-*===.                       o%%%%&@@@o@@@@#@o@@@@@#o@@@@o@#.***",
"-*===.                       o%%%%&@@@o@@@@#@o@@@@@#o@@@@o@#.===",
"-*===.                       o%%%%&@#@o@@@@#@o@@@@@@o@@@@o@#.===",
"-****.                       o%%%%&@#@o@@@@#@o@@@@@@o@@@@o@#.===",
"-*===.                       o%%%%&@#@o@@@@@@o@@@@@@o@@@@o@#.***",
"-*===.                       o%%%%&@@@o@@@@@@o@@@@@@o@@@@o@@.===",
" *===.;;;;;;;;;;;;;;;;;;;;;  ;ooooooOooooooooOoooooooOoooooo.==="
};
