/* XPM */
static char *a90678e5c8084c84af20e7481c7d3367f0Lpng7FqLBtjY3l[] = {
/* columns rows colors chars-per-pixel */
"64 64 13 1 ",
"  c None",
". c black",
"X c gray13",
"o c #4E342E",
"O c #5D4037",
"+ c #795548",
"@ c #9C5A3C",
"# c #FF9100",
"$ c #4D6DF3",
"% c #BCAAA4",
"& c #B4B4B4",
"* c gray74",
"= c #99D9EA",
/* pixels */
"XXXXXXXXXXXXXXXXXXXXXXXXXXX===========XXXXXXXXXXXXXXXXXXXXXXXXXX",
"XXXXXXXXXXXXXXXXXXXXXXX====&&&$&&&&$&&====XXXXXXXXXXXXXXXXXXXXXX",
"XXXXXXXXXXXXXXXXXXXX===&&&$&&&$&&&&$&&&&&$===XXXXXXXXXXXXXXXXXXX",
"XXXXXXXXXXXXXXXXXX==&$&&&&$&&&$&&&&$&&&&&$&&&==XXXXXXXXXXXXXXXXX",
"XXXXXXXXXXXXXXXX==&&&$&&&&$&............$$&&&&$==XXXXXXXXXXXXXXX",
"XXXXXXXXXXXXXXX=&$&&&&$&&..oooooooooooooo..&&&$&&=XXXXXXXXXXXXXX",
"XXXXXXXXXXXXX==&&$&&&&$..ooooooooooooooooo..&$&&&&==XXXXXXXXXXXX",
"XXXXXXXXXXXX=&&&&&$&&..ooo##+#######+##oooo...&&&&$&=XXXXXXXXXXX",
"XXXXXXXXXXX=$&&&&&$&.oo#####+#######+###ooooo..&&$&&&=XXXXXXXXXX",
"XXXXXXXXXX=&&$&&&&..oo######+#######+####oooooo.$&&&&$=XXXXXXXXX",
"XXXXXXXXX=&&&$&&&..oo#######+#######+#######oooo..&&$&&=XXXXXXXX",
"XXXXXXXX=&&&&&$&.ooo########+#######+########+ooo..&$&&&=XXXXXXX",
"XXXXXXX=&$&&&&..oo#+########+#######+########+##oo.$&&&&&=XXXXXX",
"XXXXXX=&&&$&&..oo##+########+#######+########+##ooo.&&&&$&=XXXXX",
"XXXXXX=&&&&$.ooo###+########+#######+########+###oo.&&&$&&=XXXXX",
"XXXXX.&&&&&.ooo####+########+#######+########+#####o.&$&&&&=XXXX",
"XXXX=$&&&&.ooo#####+########+#######+########+#####o..&&&&&&=XXX",
"XXXX=.$&&&.o#######+########+#######+########+#####ooo.&&&$$=XXX",
"XXX==.&$&.oo#######+########+#######+########+#######o..$$&&&=XX",
"XXX==.&.ooo########+########+#######+########+#######ooo.&&&&=XX",
"XX=$$...oo+########+########+#######+########+#######+#o..$$$$=X",
"XX=&&.ooo#+########+########+#######+########+#######+#oo.&&&&=X",
"XX=&&.o###+########+########+#######+########+#######+##oo.&&&=X",
"X=&&&.####+########+########+#######+########+#######+###o..&&&=",
"X=$$$OOOOOOOOOOOOOOOOOOOOOOOOOOOOOOOOOOOOOOOOOOOOOOOOOOOOOOOO$$=",
"X=&&OO@@@@@@@@@@@@@@@@@@@@@@@@@@@@@@@@@@@@@@@@@@@@@@@@@@@@@@OO&=",
"X=&OOO+++++&&++++++++&&+++++++++&&++++++++++&&++++++++&&++++OOO=",
"=&&OOO@@@@@&&@@@@@@@@&&@@@@@@@@@&&@@@@@@@@@@&&@@@@@@@@&&@@@@OOO&",
"=$$$OO@@@@@@@@@@@@@@@@@@@@@@@@@@@@@@@@@@@@@@@@@@@@@@@@@@@@@@OO$$",
"=$&&&OOOOOOOOOOOOOOOOOOOOOOOOOOOOOOOOOOOOOOOOOOOOOOOOOOOOOOOO&&&",
"=$&&&.####+########+########+#######+########+#######+######.&&&",
"=$&&&.####+########+########+#######+########+#######+######.&&&",
"=$$$$.####+########+########+#######+########+#######+######.$$$",
"=$&&&.####+*%*#####+########+#######+########+#######+######.&&&",
"=$&&&.####+*%&#####+########+#######+########+#######+######.&&&",
"=$&&&.####+#%######+########+#######+########+#######+######.&&&",
"=$$$$.####+#%######+########+#######+########+#######+######.$$$",
"=$&&&.####+#%######+########+#######+########+#######+######.&&&",
"=$&&&.####+#%######+########+#######+########+#######+######.&&&",
"=$&&&.####+#%######+########+#######+########+#######+######.&&&",
"=$$$$.####+*%*#####+########+#######+########+#######+######.$$$",
"=$&&&.####+*%*#####+########+#######+########+#######+######.&&&",
"=$&&&.####+########+########+#######+########+#######+######.&&&",
"=$&&&.####+########+########+#######+########+#######+######.&&&",
"=$$$$.####+########+########+#######+########+#######+######.&&&",
"=$&&&.####+########+########+#######+########+#######+######.$$$",
"=$&&&.####+########+########+#######+########+#######+######.&&&",
"=$&&&.####+########+########+#######+########+#######+######.&&&",
"=$$$$.####+########+########+#######+########+#######+######.&&&",
"=$&&&.####+########+########+#######+########+#######+######.$$$",
"=$&&&.####+########+########+#######+########+#######+######.&&&",
"=$&&&.####+########+########+#######+########+#######+######.&&&",
"=$$$$OOOOOOOOOOOOOOOOOOOOOOOOOOOOOOOOOOOOOOOOOOOOOOOOOOOOOOOO&&&",
"=$&&OO@@@@@@@@@@@@@@@@@@@@@@@@@@@@@@@@@@@@@@@@@@@@@@@@@@@@@@OO$$",
"=$&OOO++++++&&++++++++&&++++++++&&++++++++++&&++++++++++&&++OOO&",
"=$&OOO@@@@@@&&@@@@@@@@&&@@@@@@@@&&@@@@@@@@@@&&@@@@@@@@@@&&@@OOO&",
"=$$$OO@@@@@@@@@@@@@@@@@@@@@@@@@@@@@@@@@@@@@@@@@@@@@@@@@@@@@@OO&&",
"=$&&&OOOOOOOOOOOOOOOOOOOOOOOOOOOOOOOOOOOOOOOOOOOOOOOOOOOOOOOO$$$",
"=$&&&.####+########+########+#######+########+#######+######.&&&",
"=$&&&.####+########+########+#######+########+#######+######.&&&",
"=$$$$.####+########+########+#######+########+#######+######.&&&",
"=$&&&.####+########+########+#######+########+#######+######.$$$",
"=$&&&.####+########+########+#######+########+#######+######.&&&",
" $&&&.####+########+########+#######+########+#######+######.&&&"
};
